<svg xmlns="http://www.w3.org/2000/svg" width="1280" height="680" viewBox="0 0 1280 680" role="img" aria-labelledby="title desc">
  <title id="title">Ignite data region memory budget</title>
  <desc id="desc">A data region budget showing memory regions, a memory segment, page types, checkpoint buffer, and full-region behavior.</desc>
  <defs>
    <style>
      .label{font-family:Helvetica,Arial,sans-serif;fill:#3c3c3b}
      .muted{fill:#676666}
      .white{fill:#fff}
      .bold{font-weight:700}
      .small{font-size:20px}
      .mid{font-size:22px}
      .large{font-size:34px}
    </style>
    <marker id="arrow" viewBox="0 0 12 12" refX="10" refY="6" markerWidth="12" markerHeight="12" orient="auto">
      <path d="M2 2 L10 6 L2 10 Z" fill="#ff6716"/>
    </marker>
  </defs>
  <rect width="1280" height="680" fill="#fff"/>

  <rect x="300" y="36" width="680" height="78" rx="10" fill="#de0e06"/>
  <rect x="314" y="49" width="652" height="52" rx="9" fill="#eeeded" stroke="#f08a88" stroke-width="6"/>
  <text x="640" y="84" text-anchor="middle" class="label muted large bold">DataRegionConfiguration.maxSize</text>

  <path d="M330 114 V150" fill="none" stroke="#ff6716" stroke-width="5" marker-end="url(#arrow)"/>
  <path d="M640 114 V150" fill="none" stroke="#ff6716" stroke-width="5" marker-end="url(#arrow)"/>
  <path d="M950 114 V150" fill="none" stroke="#ff6716" stroke-width="5" marker-end="url(#arrow)"/>

  <circle cx="329" cy="219" r="59" fill="#eeeded" stroke="#f08a88" stroke-width="6"/>
  <text x="329" y="205" text-anchor="middle" class="label muted mid bold">Memory</text>
  <text x="329" y="232" text-anchor="middle" class="label muted mid bold">Region</text>
  <text x="329" y="259" text-anchor="middle" class="label muted mid bold">1</text>

  <circle cx="639" cy="219" r="59" fill="#eeeded" stroke="#f08a88" stroke-width="6"/>
  <text x="639" y="205" text-anchor="middle" class="label muted mid bold">Memory</text>
  <text x="639" y="232" text-anchor="middle" class="label muted mid bold">Region</text>
  <text x="639" y="259" text-anchor="middle" class="label muted mid bold">2</text>

  <circle cx="949" cy="219" r="59" fill="#eeeded" stroke="#f08a88" stroke-width="6"/>
  <text x="949" y="205" text-anchor="middle" class="label muted mid bold">Memory</text>
  <text x="949" y="232" text-anchor="middle" class="label muted mid bold">Region</text>
  <text x="949" y="259" text-anchor="middle" class="label muted mid bold">3</text>

  <text x="640" y="340" text-anchor="middle" class="label muted large bold">Memory Segment</text>
  <rect x="105" y="360" width="780" height="150" rx="12" fill="#eeeded"/>

  <circle cx="185" cy="435" r="50" fill="#e84f2c"/>
  <text x="185" y="430" text-anchor="middle" class="label white mid bold">Data</text>
  <text x="185" y="457" text-anchor="middle" class="label white mid bold">pages</text>

  <circle cx="310" cy="435" r="50" fill="#f08327"/>
  <text x="310" y="430" text-anchor="middle" class="label white small bold">B+Tree</text>
  <text x="310" y="455" text-anchor="middle" class="label white small bold">meta</text>

  <circle cx="435" cy="435" r="50" fill="#b41c59"/>
  <text x="435" y="430" text-anchor="middle" class="label white small bold">Primary</text>
  <text x="435" y="455" text-anchor="middle" class="label white small bold">index</text>

  <circle cx="560" cy="435" r="50" fill="#b41c59"/>
  <text x="560" y="430" text-anchor="middle" class="label white mid bold">SQL</text>
  <text x="560" y="457" text-anchor="middle" class="label white mid bold">indexes</text>

  <circle cx="685" cy="435" r="50" fill="#680c66"/>
  <text x="685" y="420" text-anchor="middle" class="label white small bold">Free lists</text>
  <text x="685" y="445" text-anchor="middle" class="label white small bold">metadata</text>

  <circle cx="810" cy="435" r="50" fill="#676666"/>
  <text x="810" y="445" text-anchor="middle" class="label white mid bold">Page N</text>

  <path d="M890 408 H973" fill="none" stroke="#ff6716" stroke-width="5" marker-end="url(#arrow)"/>
  <rect x="985" y="370" width="190" height="75" rx="8" fill="#f08327" stroke="#ff6716" stroke-width="6"/>
  <text x="1080" y="400" text-anchor="middle" class="label white mid bold">Checkpoint</text>
  <text x="1080" y="428" text-anchor="middle" class="label white mid bold">buffer</text>

  <path d="M890 522 H973" fill="none" stroke="#ff6716" stroke-width="5" marker-end="url(#arrow)"/>
  <rect x="985" y="475" width="190" height="95" rx="8" fill="#676666"/>
  <text x="1080" y="510" text-anchor="middle" class="label white small bold">Region full:</text>
  <text x="1080" y="535" text-anchor="middle" class="label white small bold">evict, replace,</text>
  <text x="1080" y="560" text-anchor="middle" class="label white small bold">or Ignite OOM</text>

  <line x1="170" y1="595" x2="860" y2="595" stroke="#de0e06" stroke-width="6" stroke-linecap="round"/>
  <circle cx="170" cy="595" r="12" fill="#de0e06"/>
  <circle cx="860" cy="595" r="12" fill="#de0e06"/>
  <text x="535" y="640" text-anchor="middle" class="label small">Size from representative data: backups, indexes, fill factor, free lists, and partition overhead.</text>
</svg>
