<svg xmlns="http://www.w3.org/2000/svg" width="1280" height="720" viewBox="0 0 1280 720" role="img" aria-labelledby="title desc">
  <title id="title">Ignite capacity limit failures</title>
  <desc id="desc">A diagram showing that JVM memory capacity limits usually produce OutOfMemoryError while Ignite page memory limits usually produce IgniteOutOfMemoryException.</desc>
  <defs>
    <style>
      .t{font-family:Helvetica,Arial,sans-serif;fill:#3c3c3b}
      .w{font-family:Helvetica,Arial,sans-serif;fill:#fff;font-weight:700}
      .b{font-weight:700}
    </style>
    <marker id="arrow" viewBox="0 0 12 12" refX="10" refY="6" markerWidth="12" markerHeight="12" orient="auto">
      <path d="M2 2 L10 6 L2 10 Z" fill="#ff6716"/>
    </marker>
  </defs>
  <rect width="1280" height="720" fill="#fff"/>
  <rect x="250" y="45" width="780" height="65" rx="10" fill="#3c3c3b"/>
  <text x="640" y="87" text-anchor="middle" class="w" font-size="32">Different Capacity Limits Fail Differently</text>

  <rect x="85" y="155" width="510" height="430" rx="12" fill="#eeeded"/>
  <text x="340" y="205" text-anchor="middle" class="t b" font-size="28">JVM memory limit</text>
  <rect x="165" y="255" width="350" height="70" rx="10" fill="#de0e06"/>
  <text x="340" y="299" text-anchor="middle" class="w" font-size="24">heap / direct / metaspace</text>
  <path d="M340 330 V380" fill="none" stroke="#ff6716" stroke-width="5" marker-end="url(#arrow)"/>
  <rect x="165" y="390" width="350" height="70" rx="10" fill="#ff6868" stroke="#de0e06" stroke-width="4"/>
  <text x="340" y="434" text-anchor="middle" class="w" font-size="24">java.lang.OutOfMemoryError</text>
  <text x="340" y="508" text-anchor="middle" class="t" font-size="21">large SQL results, query state,</text>
  <text x="340" y="535" text-anchor="middle" class="t" font-size="21">batches, threads, code cache</text>

  <rect x="685" y="155" width="510" height="430" rx="12" fill="#eeeded"/>
  <text x="940" y="205" text-anchor="middle" class="t b" font-size="28">Ignite page memory limit</text>
  <rect x="765" y="255" width="350" height="70" rx="10" fill="#de0e06"/>
  <text x="940" y="299" text-anchor="middle" class="w" font-size="24">data region / checkpoint buffer</text>
  <path d="M940 330 V380" fill="none" stroke="#ff6716" stroke-width="5" marker-end="url(#arrow)"/>
  <rect x="765" y="390" width="350" height="70" rx="10" fill="#ff6868" stroke="#de0e06" stroke-width="4"/>
  <text x="940" y="434" text-anchor="middle" class="w" font-size="24">IgniteOutOfMemoryException</text>
  <path d="M940 460 V492" fill="none" stroke="#ff6716" stroke-width="5" marker-end="url(#arrow)"/>
  <rect x="755" y="500" width="370" height="65" rx="10" fill="#2f80c0"/>
  <text x="940" y="526" text-anchor="middle" class="w" font-size="21">with persistence: disk + OS page cache</text>
  <text x="940" y="553" text-anchor="middle" class="w" font-size="21">affect replacement and checkpointing</text>

  <text x="640" y="652" text-anchor="middle" class="t" font-size="23">Heap-only monitoring misses Ignite page memory, direct buffers, OS page cache, and disk pressure.</text>
</svg>
